<svg xmlns="http://www.w3.org/2000/svg" width="142" height="39" fill="none" viewBox="0 0 142 39"><path fill="#0E4D65" stroke="#0E4D65" stroke-miterlimit="10" stroke-width=".5" d="M123.166 13.595v7.164c0 1.29-.326 2.281-.968 2.953-.665.736-1.711 1.116-3.107 1.116-1.301 0-2.305-.356-3.012-1.057-.701-.701-1.058-1.71-1.058-3.012v-7.165h1.313v7.165c0 1.883.88 2.762 2.757 2.762.968 0 1.687-.22 2.115-.647.434-.434.647-1.14.647-2.115v-7.165h1.313ZM141 22.702v-.173a2.403 2.403 0 0 0-.125-.67l-3.38-8.288h-1.04l-2.988 8.18-.024.083.054.066c.225.32.54.57.897.73l.124.036.244-.564 2.216-6.155s2.216 4.806 2.709 6.5c.018.059.012.118.012.184 0 .136-.03.273-.083.398-.238.558-1.082.76-1.622.902l-.226.042-.107.024a5.105 5.105 0 0 1-2.352-.107 5.003 5.003 0 0 1-1.177-.529 6.37 6.37 0 0 1-.998-.778 22.832 22.832 0 0 1-.932-.933c-.41-.44-.85-.873-1.313-1.295a6.998 6.998 0 0 0-.892-.665c.387-.19.725-.464.999-.796a3.18 3.18 0 0 0 .712-2.091c0-.428-.089-.856-.261-1.248a3.153 3.153 0 0 0-.689-1.028 3.274 3.274 0 0 0-1.028-.695 3.198 3.198 0 0 0-1.271-.255h-3.909V24.81h1.289v-4.777h.719c.523 0 1.039.078 1.538.22.422.137.826.321 1.2.553.363.225.696.487 1.004.778.321.309.636.63.945.956.327.339.665.672 1.01.998.368.345.76.654 1.188.927.464.291.963.517 1.491.671a6.925 6.925 0 0 0 1.907.25 6.254 6.254 0 0 0 1.622-.232c.962-.273 1.925-.641 2.341-1.633.125-.262.19-.541.196-.82Zm-15.131-7.824h2.602a1.922 1.922 0 0 1 1.782 1.17c.303.73.16 1.568-.374 2.15a1.91 1.91 0 0 1-1.408.53h-2.602v-3.85ZM110.168 13.595h-.838l-.143.303-4.55 10.93h1.408l1.164-2.798h5.097l1.188 2.798h1.42l-4.746-11.233Zm-2.43 7.128 2.014-4.806 2.002 4.806h-4.016ZM44.664 14.913v2.774h4.682v1.307h-4.682v5.834h-1.3V13.606h6.659v1.307h-5.359ZM98.541 19.886a3.02 3.02 0 0 0 1.426-.945c.499-.594.761-1.354.737-2.133 0-.427-.089-.855-.255-1.247a3.454 3.454 0 0 0-.69-1.028 3.359 3.359 0 0 0-1.027-.689 3.218 3.218 0 0 0-1.272-.255h-4.087v11.24h1.295v-4.777h2.477l2.49 4.777h1.473l-2.567-4.943Zm-3.843-4.99h2.774c.262 0 .517.053.755.154.231.101.44.238.617.41.173.178.315.386.41.612.101.232.155.487.155.736a1.822 1.822 0 0 1-1.93 1.931h-2.775l-.006-3.843ZM86.677 14.896v2.78h4.681v1.3h-4.68v4.54h5.358v1.307h-6.672V13.589h6.672v1.307h-5.359ZM67.87 18.917a5.804 5.804 0 0 1-.458 2.305 5.887 5.887 0 0 1-5.448 3.6h-10.45V13.6h1.308v9.915h9.136a4.39 4.39 0 0 0 1.783-.362 4.743 4.743 0 0 0 1.467-.992 4.566 4.566 0 0 0 .992-5.026 4.625 4.625 0 0 0-2.46-2.454 4.515 4.515 0 0 0-3.558 0 4.643 4.643 0 0 0-2.453 2.46 4.567 4.567 0 0 0 .992 5.026c.065.071.136.137.214.196l.362.315h-1.39c-.416 0-.665-.232-.92-.565-.292-.386-.28-.445-.47-.89a5.763 5.763 0 0 1-.464-2.3 5.94 5.94 0 0 1 1.723-4.188 5.95 5.95 0 0 1 6.487-1.26 5.84 5.84 0 0 1 3.15 3.15c.308.718.463 1.502.457 2.292ZM84.105 13.69l-4.028 11.138h-1.176l-.036-.089-3.006-8.424-3.036 8.513-.1.006H71.64l-3.529-9.838-.499-1.3h1.396c1.17 2.899 2.163 5.964 3.22 8.917l3.006-8.454c.012-.024.024-.042.03-.06l.148-.404h.886l.154.41c.012.012.018.03.024.048l3.012 8.46c1.051-2.947 2.043-6.024 3.22-8.918h1.396v-.005Z"/><path fill="#0E4D65" fill-rule="evenodd" stroke="#0E4D65" stroke-miterlimit="10" stroke-width=".5" d="M18.911 24.828h.779a9.348 9.348 0 0 1 1.241 3.238c.131.666.125 1.123.113 3.173v6.267l3.357-4.105 2.53 1.17c.179-3.03.149-6.172-1.996-8.602l-6.024-6.03-6.024 6.03c-2.144 2.424-2.174 5.567-1.996 8.602l2.531-1.17 3.357 4.105V31.24c-.012-2.056-.012-2.508.113-3.173a9.303 9.303 0 0 1 1.241-3.238h.778Zm3.232 3.036c-.309-1.544-.89-2.845-1.818-4.123l.202-.457 3.012 3.03c.428.398.796.85 1.105 1.336.814 1.593 1.236 3.559 1.236 5.347l-1.717-.778-1.842 2.097c-.006-1.984.22-4.604-.178-6.452Zm-4.176-5.424.95-.76.95.76-.534 1.254h-.832l-.534-1.254Zm-3.672 3.88 3.012-3.03.202.457c-.926 1.277-1.509 2.579-1.818 4.123-.403 1.848-.172 4.468-.172 6.458l-1.841-2.097-1.717.778c0-1.788.428-3.76 1.235-5.347.303-.499.672-.95 1.1-1.342Z" clip-rule="evenodd"/><path fill="#0E4D65" stroke="#0E4D65" stroke-miterlimit="10" stroke-width=".5" d="M12.329 13.374A7.773 7.773 0 0 0 5.545 11.2c-.25.042-.5.095-.749.16-.28.072-.546.161-.814.268C2.717 12.12 1.94 12.757 1 13.683l5.222 5.222L1 24.127c.939.939 1.7 1.569 2.982 2.068a7.588 7.588 0 0 0 1.562.428c.422.07.85.1 1.284.1 2.038.006 4.087-.807 5.501-2.287l5.537-5.537-5.537-5.525Zm-1.046 1.046 2.003 2.002a7.82 7.82 0 0 0-1.236-.095 7.796 7.796 0 0 0-4.711 1.58l-4.165-4.164a6.247 6.247 0 0 1 2.359-1.028c2.133-.451 4.2.208 5.75 1.705Zm-.136 9.113a6.348 6.348 0 0 1-7.973.54l4.408-4.401c.149-.149.303-.291.47-.428l.018-.018a6.236 6.236 0 0 1 3.98-1.414c.433 0 .873.048 1.3.137.755.16 1.819.529 2.43.962l-4.633 4.622ZM24.449 12.329a7.773 7.773 0 0 0 2.174-6.784 8.434 8.434 0 0 0-.16-.749 6.51 6.51 0 0 0-.268-.814C25.702 2.717 25.066 1.94 24.14 1l-5.222 5.222L13.696 1c-.939.939-1.569 1.7-2.068 2.982a7.616 7.616 0 0 0-.428 1.562c-.07.422-.1.85-.1 1.284-.006 2.038.808 4.087 2.287 5.501l5.537 5.537 5.525-5.537Zm-1.046-1.046-2.002 2.003c.065-.41.095-.82.095-1.236a7.796 7.796 0 0 0-1.58-4.711l4.164-4.165a6.242 6.242 0 0 1 1.028 2.359c.451 2.127-.202 4.194-1.705 5.75Zm-9.113-.142a6.348 6.348 0 0 1-.54-7.973l4.401 4.408c.149.149.291.303.428.47l.018.018a6.237 6.237 0 0 1 1.414 3.98c0 .434-.048.873-.137 1.3-.16.755-.529 1.819-.962 2.43l-4.622-4.633ZM25.488 24.448a7.773 7.773 0 0 0 6.784 2.175 8.4 8.4 0 0 0 .749-.16c.28-.072.546-.161.814-.268 1.265-.493 2.043-1.129 2.982-2.056l-5.222-5.222 5.222-5.222c-.939-.938-1.699-1.568-2.982-2.067a7.588 7.588 0 0 0-1.563-.428 7.682 7.682 0 0 0-1.283-.1c-2.038-.006-4.087.807-5.501 2.287l-5.537 5.536 5.537 5.525Zm1.046-1.045L24.532 21.4c.41.065.82.095 1.235.095a7.796 7.796 0 0 0 4.711-1.58l4.165 4.164a6.247 6.247 0 0 1-2.359 1.028c-2.127.451-4.194-.208-5.75-1.705Zm.142-9.12a6.348 6.348 0 0 1 7.973-.54l-4.408 4.402a6.47 6.47 0 0 1-.47.428l-.018.018a6.237 6.237 0 0 1-3.98 1.414 6.41 6.41 0 0 1-1.3-.137c-.755-.16-1.819-.529-2.43-.962l4.633-4.622Z"/></svg>